<svg width="24" height="25" viewBox="0 0 24 25" fill="none" xmlns="http://www.w3.org/2000/svg">
<path d="M10.36 12.21L3.19 7.12012C3.98 5.85012 5.4 5 7 5H17C18.6 5 20.01 5.84011 20.81 7.11011L13.66 12.1899C12.65 12.8599 11.35 12.86 10.36 12.21ZM21.48 9.1001L14.8 13.8401C13.94 14.4101 12.96 14.6899 11.99 14.6899C11.03 14.6899 10.07 14.4101 9.22998 13.8501L2.52002 9.1001C2.51002 9.2301 2.5 9.37 2.5 9.5V15.5C2.5 17.98 4.52 20 7 20H17C19.48 20 21.5 17.98 21.5 15.5V9.5C21.5 9.37 21.49 9.2301 21.48 9.1001Z" fill="#4019AC"/>
</svg>
