<svg width="24" height="24" viewBox="0 0 24 24" fill="none" xmlns="http://www.w3.org/2000/svg">
<g id="Component 2">
<path id="Vector" d="M2.47801 10.6705C8.24936 8.15604 12.0978 6.49833 14.0234 5.69741C19.5214 3.41062 20.6638 3.01338 21.4084 3.00013C21.5722 2.99738 21.9384 3.03797 22.1756 3.23044C22.3759 3.39296 22.431 3.61249 22.4573 3.76658C22.4837 3.92066 22.5165 4.27167 22.4904 4.54594C22.1925 7.67638 20.9033 15.2731 20.2475 18.7793C19.97 20.2629 19.4235 20.7603 18.8945 20.809C17.7448 20.9148 16.8718 20.0492 15.7583 19.3193C14.0159 18.1771 13.0315 17.4661 11.3402 16.3515C9.38557 15.0634 10.6527 14.3555 11.7666 13.1985C12.0581 12.8957 17.1236 8.28827 17.2217 7.87031C17.2339 7.81803 17.2453 7.62318 17.1295 7.52029C17.0138 7.4174 16.8429 7.45259 16.7196 7.48057C16.5449 7.52023 13.7613 9.36006 8.36898 13C7.57888 13.5426 6.86322 13.8069 6.22203 13.7931C5.51516 13.7778 4.15542 13.3934 3.1446 13.0648C1.90478 12.6618 0.919404 12.4487 1.00521 11.7643C1.0499 11.4078 1.54084 11.0432 2.47801 10.6705Z" fill="white"/>
</g>
</svg>
