<svg width="24" height="24" viewBox="0 0 24 24" fill="none" xmlns="http://www.w3.org/2000/svg">
<g id="Component 2">
<path id="Vector" d="M20.079 3.14225C19.5334 2.63958 17.3251 1.03705 12.4015 1.01557C12.4015 1.01557 6.59711 0.667562 3.77012 3.26255C2.19766 4.83501 1.64343 7.14214 1.58328 9.9992C1.52313 12.8563 1.45009 18.2095 6.61 19.6617H6.61429L6.61 21.8786C6.61 21.8786 6.57562 22.7765 7.16852 22.9569C7.88171 23.1804 8.30275 22.4972 8.98587 21.7626C9.35965 21.3587 9.87521 20.7658 10.2662 20.3147C13.7978 20.6112 16.5088 19.9323 16.8181 19.8335C17.5313 19.6015 21.5655 19.086 22.2186 13.7327C22.8974 8.20763 21.8921 4.71901 20.079 3.14225ZM20.6762 13.3289C20.122 17.7971 16.8525 18.0806 16.251 18.2739C15.9932 18.3556 13.6087 18.9485 10.6142 18.7551C10.6142 18.7551 8.38009 21.4489 7.68408 22.1492C7.45637 22.3769 7.20719 22.3555 7.21148 21.9043C7.21148 21.6079 7.22867 18.2224 7.22867 18.2224C7.22437 18.2224 7.22437 18.2224 7.22867 18.2224C2.855 17.0108 3.11278 12.4524 3.16004 10.0679C3.2073 7.68348 3.65841 5.72864 4.99028 4.41397C7.38334 2.24432 12.3112 2.56654 12.3112 2.56654C16.4744 2.58373 18.4679 3.83826 18.9319 4.2593C20.4657 5.57398 21.2476 8.71889 20.6762 13.3289ZM14.7043 9.85742C14.7215 10.2269 14.1673 10.2527 14.1501 9.8832C14.1028 8.93801 13.6603 8.4783 12.7495 8.42674C12.38 8.40526 12.4143 7.85103 12.7795 7.87252C13.9782 7.93696 14.6441 8.62437 14.7043 9.85742ZM15.5765 10.3429C15.6194 8.52126 14.4809 7.09488 12.3198 6.93591C11.9546 6.91014 11.9933 6.35591 12.3585 6.38169C14.8504 6.56213 16.1779 8.27637 16.1307 10.3558C16.1264 10.7253 15.5679 10.7081 15.5765 10.3429ZM17.5957 10.9186C17.6 11.2881 17.0415 11.2924 17.0415 10.9229C17.0157 7.4214 14.6828 5.51383 11.8515 5.49235C11.4863 5.48805 11.4863 4.93812 11.8515 4.93812C15.0179 4.9596 17.5657 7.14644 17.5957 10.9186ZM17.1102 15.1333V15.1419C16.6462 15.9582 15.7784 16.8604 14.8847 16.5726L14.8761 16.5597C13.9696 16.3062 11.8343 15.2064 10.4853 14.1323C9.78928 13.5823 9.15343 12.9336 8.66364 12.3106C8.22112 11.7564 7.7743 11.0991 7.34037 10.3085C6.42525 8.65445 6.22332 7.91548 6.22332 7.91548C5.93547 7.02184 6.8334 6.15398 7.65401 5.68998H7.6626C8.05786 5.48375 8.43594 5.5525 8.68942 5.85753C8.68942 5.85753 9.22217 6.49339 9.44987 6.80702C9.66469 7.09918 9.95255 7.56748 10.1029 7.82955C10.365 8.29785 10.2017 8.77475 9.94395 8.97238L9.42839 9.38483C9.16632 9.59535 9.20069 9.98631 9.20069 9.98631C9.20069 9.98631 9.96544 12.8777 12.8225 13.6081C12.8225 13.6081 13.2135 13.6425 13.424 13.3804L13.8364 12.8649C14.0341 12.6071 14.511 12.4438 14.9793 12.7059C15.6108 13.0625 16.4142 13.6167 16.947 14.1194C17.2477 14.3643 17.3165 14.7381 17.1102 15.1333Z" fill="white"/>
</g>
</svg>
