<svg width="92" height="46" viewBox="0 0 92 46" fill="none" xmlns="http://www.w3.org/2000/svg">
<path d="M39.3705 25.9374C39.3705 30.2945 35.962 33.5051 31.7789 33.5051C27.5959 33.5051 24.1873 30.2945 24.1873 25.9374C24.1873 21.5496 27.5959 18.3696 31.7789 18.3696C35.962 18.3696 39.3705 21.5496 39.3705 25.9374ZM36.0473 25.9374C36.0473 23.2146 34.0718 21.3517 31.7789 21.3517C29.4861 21.3517 27.5106 23.2146 27.5106 25.9374C27.5106 28.6328 29.4861 30.5231 31.7789 30.5231C34.0718 30.5231 36.0473 28.6294 36.0473 25.9374Z" fill="#EA4335"/>
<path d="M55.748 25.9374C55.748 30.2945 52.3394 33.5051 48.1564 33.5051C43.9733 33.5051 40.5648 30.2945 40.5648 25.9374C40.5648 21.553 43.9733 18.3696 48.1564 18.3696C52.3394 18.3696 55.748 21.5496 55.748 25.9374ZM52.4247 25.9374C52.4247 23.2146 50.4492 21.3517 48.1564 21.3517C45.8635 21.3517 43.888 23.2146 43.888 25.9374C43.888 28.6328 45.8635 30.5231 48.1564 30.5231C50.4492 30.5231 52.4247 28.6294 52.4247 25.9374Z" fill="#FBBC05"/>
<path d="M71.4428 18.8268V32.4133C71.4428 38.0021 68.1469 40.2847 64.2504 40.2847C60.5826 40.2847 58.3751 37.8315 57.5425 35.8253L60.4359 34.6209C60.9511 35.8526 62.2135 37.3061 64.247 37.3061C66.7412 37.3061 68.2868 35.7673 68.2868 32.8705V31.7821H68.1708C67.427 32.6999 65.994 33.5017 64.1856 33.5017C60.4018 33.5017 56.9352 30.2058 56.9352 25.9647C56.9352 21.6929 60.4018 18.3696 64.1856 18.3696C65.9905 18.3696 67.4236 19.1714 68.1708 20.062H68.2868V18.8302H71.4428V18.8268ZM68.5222 25.9647C68.5222 23.2999 66.7446 21.3517 64.4825 21.3517C62.1896 21.3517 60.2687 23.2999 60.2687 25.9647C60.2687 28.6021 62.1896 30.5231 64.4825 30.5231C66.7446 30.5231 68.5222 28.6021 68.5222 25.9647Z" fill="#4285F4"/>
<path d="M76.6462 10.8633V33.0411H73.4048V10.8633H76.6462Z" fill="#34A853"/>
<path d="M89.2772 28.4281L91.8567 30.1478C91.0242 31.3795 89.0179 33.5017 85.5514 33.5017C81.2523 33.5017 78.0417 30.1785 78.0417 25.934C78.0417 21.4336 81.2796 18.3662 85.1795 18.3662C89.1066 18.3662 91.0276 21.4916 91.6554 23.1805L92 24.0403L81.8835 28.2302C82.6581 29.7486 83.8625 30.5231 85.5514 30.5231C87.2437 30.5231 88.4174 29.6906 89.2772 28.4281ZM81.3376 25.7054L88.1001 22.8973C87.7282 21.9522 86.6091 21.2937 85.2921 21.2937C83.6032 21.2937 81.2523 22.7847 81.3376 25.7054Z" fill="#EA4335"/>
<path d="M11.918 23.9686V20.7579H22.7373C22.8431 21.3175 22.8977 21.9794 22.8977 22.6959C22.8977 25.1048 22.2392 28.0834 20.1169 30.2057C18.0527 32.3552 15.4152 33.5016 11.9214 33.5016C5.44549 33.5016 0 28.2267 0 21.7508C0 15.2749 5.44549 10 11.9214 10C15.504 10 18.0561 11.4057 19.9736 13.238L17.7081 15.5035C16.3331 14.2138 14.4701 13.2107 11.918 13.2107C7.18901 13.2107 3.49044 17.0218 3.49044 21.7508C3.49044 26.4798 7.18901 30.291 11.918 30.291C14.9853 30.291 16.7323 29.0592 17.8514 27.9401C18.759 27.0325 19.3561 25.736 19.5915 23.9652L11.918 23.9686Z" fill="#4285F4"/>
</svg>
