<svg width="70" height="14" viewBox="0 0 70 14" fill="none" xmlns="http://www.w3.org/2000/svg">
<path d="M7 0.5L8.6314 4.75457L13.1819 4.99139L9.63966 7.85768L10.8206 12.2586L7 9.7755L3.1794 12.2586L4.36034 7.85768L0.818133 4.99139L5.3686 4.75457L7 0.5Z" fill="#F0BE42"/>
<path d="M21 0.5L22.6314 4.75457L27.1819 4.99139L23.6397 7.85768L24.8206 12.2586L21 9.7755L17.1794 12.2586L18.3603 7.85768L14.8181 4.99139L19.3686 4.75457L21 0.5Z" fill="#F0BE42"/>
<path d="M35 0.5L36.6314 4.75457L41.1819 4.99139L37.6397 7.85768L38.8206 12.2586L35 9.7755L31.1794 12.2586L32.3603 7.85768L28.8181 4.99139L33.3686 4.75457L35 0.5Z" fill="#F0BE42"/>
<path d="M49 0.5L50.6314 4.75457L55.1819 4.99139L51.6397 7.85768L52.8206 12.2586L49 9.7755L45.1794 12.2586L46.3603 7.85768L42.8181 4.99139L47.3686 4.75457L49 0.5Z" fill="#F0BE42"/>
<mask id="mask0_132_1941" style="mask-type:alpha" maskUnits="userSpaceOnUse" x="56" y="0" width="14" height="13">
<path d="M63 0.5L64.6314 4.75457L69.1819 4.99139L65.6397 7.85768L66.8206 12.2586L63 9.7755L59.1794 12.2586L60.3603 7.85768L56.8181 4.99139L61.3686 4.75457L63 0.5Z" fill="#D9D9D9"/>
</mask>
<g mask="url(#mask0_132_1941)">
<rect width="7" height="14" transform="matrix(-1 0 0 1 63 0)" fill="#F0BE42"/>
<rect x="63" width="7" height="14" fill="#DADCDF"/>
</g>
</svg>
