<svg width="750" height="600" viewBox="0 0 750 600" fill="none" xmlns="http://www.w3.org/2000/svg">
<path opacity="0.3" d="M440.685 545.5C271 568.5 183.361 469.363 156.897 401.637C117.155 299.931 131.5 144.561 257.5 71.5C383.5 -1.56058 475.679 91.7734 440.685 142.969C405.69 194.164 419.326 263.184 500.192 299.931C581.057 336.677 637.5 518.823 440.685 545.5Z" fill="url(#paint0_linear_57_1435)"/>
<g filter="url(#filter0_ii_57_1435)">
<path d="M387 276C502 229.5 489 423.862 529 418C583.5 410.013 656.795 279.136 554.5 161C441.5 30.4997 234.5 106 267 267C299.5 427.999 412.5 445.593 292 476C255.259 485.271 200.5 466 176 418" stroke="url(#paint1_linear_57_1435)" stroke-width="108.593" stroke-linecap="round" stroke-linejoin="round"/>
</g>
<rect x="214" y="140" width="320" height="320" rx="160" fill="white"/>
<path d="M480.87 320.89H477.052V326.8H474.256V320.89H461.75V318.342L473.957 300.948H477.052V318.234H480.87V320.89ZM474.256 318.234V309.69C474.256 308.013 474.314 306.119 474.432 304.007H474.292C473.728 305.134 473.2 306.066 472.706 306.803L464.673 318.234H474.256Z" fill="#747474"/>
<path fill-rule="evenodd" clip-rule="evenodd" d="M347.239 279.94V283.522L355.8 283.519C355.538 285.494 354.872 286.941 353.859 287.953C352.61 289.202 350.661 290.576 347.239 290.576C341.963 290.576 337.837 286.324 337.837 281.048C337.837 275.772 341.963 271.52 347.239 271.52C350.087 271.52 352.165 272.639 353.699 274.078L356.227 271.551C354.087 269.506 351.24 267.938 347.243 267.938C340.018 267.938 333.943 273.823 333.943 281.048C333.943 288.273 340.018 294.158 347.243 294.158C351.141 294.158 354.084 292.879 356.387 290.481C358.754 288.113 359.489 284.79 359.489 282.103C359.489 281.303 359.428 280.565 359.31 279.94H347.239ZM419.455 293.644V268.901H415.838V293.644H419.455ZM369.397 294.162C374.064 294.162 377.867 290.58 377.867 285.719C377.867 280.824 374.064 277.276 369.397 277.276C364.73 277.276 360.927 280.824 360.927 285.719C360.927 290.58 364.73 294.162 369.397 294.162ZM369.397 280.603C371.955 280.603 374.159 282.681 374.159 285.719C374.159 288.722 371.955 290.835 369.397 290.835C366.839 290.835 364.635 288.726 364.635 285.719C364.635 282.681 366.839 280.603 369.397 280.603ZM387.669 294.162C392.336 294.162 396.139 290.58 396.139 285.719C396.139 280.824 392.336 277.276 387.669 277.276C383.002 277.276 379.199 280.827 379.199 285.719C379.199 290.58 383.002 294.162 387.669 294.162ZM387.669 280.603C390.227 280.603 392.431 282.681 392.431 285.719C392.431 288.722 390.227 290.835 387.669 290.835C385.111 290.835 382.907 288.726 382.907 285.719C382.907 282.681 385.111 280.603 387.669 280.603ZM413.651 277.79V292.944C413.651 299.179 409.974 301.726 405.627 301.726C401.534 301.726 399.072 298.989 398.143 296.751L401.371 295.407C401.946 296.781 403.354 298.403 405.623 298.403C408.405 298.403 410.13 296.686 410.13 293.454V292.24H410C409.171 293.264 407.572 294.158 405.554 294.158C401.333 294.158 397.465 290.481 397.465 285.749C397.465 280.983 401.333 277.276 405.554 277.276C407.568 277.276 409.167 278.17 410 279.164H410.13V277.79H413.651ZM410.393 285.749C410.393 282.776 408.409 280.603 405.885 280.603C403.327 280.603 401.184 282.776 401.184 285.749C401.184 288.692 403.327 290.835 405.885 290.835C408.409 290.835 410.393 288.692 410.393 285.749ZM433.547 288.498L436.424 290.416C435.496 291.791 433.257 294.158 429.39 294.158C424.593 294.158 421.011 290.451 421.011 285.715C421.011 280.694 424.624 277.272 428.975 277.272C433.356 277.272 435.499 280.759 436.2 282.643L436.584 283.602L425.298 288.277C426.162 289.971 427.505 290.835 429.39 290.835C431.278 290.835 432.587 289.906 433.547 288.498ZM424.688 285.46L432.233 282.327C431.818 281.273 430.57 280.538 429.1 280.538C427.216 280.538 424.593 282.202 424.688 285.46Z" fill="#747474"/>
<path d="M343.849 307.465L340.132 317.747H347.716L343.969 307.465H343.849ZM336.924 326.651H333.687L342.26 303.868H345.588L354.162 326.651H350.924L348.736 320.475H339.143L336.924 326.651Z" fill="#747474"/>
<path d="M355.637 311.062H358.455V313.221H358.575C359.01 312.464 359.692 311.834 360.614 311.332C361.551 310.815 362.51 310.553 363.492 310.553C365.41 310.553 366.879 311.107 367.898 312.202C368.933 313.281 369.457 314.832 369.457 316.848V326.651H366.519V317.058C366.46 314.502 365.178 313.221 362.682 313.221C361.521 313.221 360.539 313.7 359.744 314.66C358.965 315.604 358.575 316.721 358.575 318.017V326.651H355.637V311.062Z" fill="#747474"/>
<path d="M374.879 321.884C374.879 322.649 375.194 323.286 375.839 323.803C376.476 324.305 377.233 324.552 378.117 324.552C379.331 324.552 380.425 324.103 381.385 323.203C382.359 322.289 382.853 321.21 382.853 319.966C381.932 319.246 380.65 318.887 379.016 318.887C377.832 318.887 376.843 319.179 376.048 319.756C375.269 320.318 374.879 321.03 374.879 321.884ZM378.657 310.553C380.815 310.553 382.509 311.137 383.753 312.291C385.012 313.453 385.641 315.042 385.641 317.058V326.651H382.853V324.492H382.734C381.512 326.276 379.893 327.161 377.877 327.161C376.153 327.161 374.714 326.651 373.56 325.632C372.421 324.612 371.852 323.346 371.852 321.824C371.852 320.206 372.459 318.932 373.68 317.987C374.894 317.028 376.528 316.548 378.567 316.548C380.305 316.548 381.729 316.863 382.853 317.478V316.818C382.853 315.799 382.441 314.945 381.624 314.24C380.822 313.521 379.886 313.161 378.806 313.161C377.165 313.161 375.876 313.85 374.939 315.229L372.361 313.61C373.778 311.572 375.876 310.553 378.657 310.553Z" fill="#747474"/>
<path d="M391.771 303.868V326.651H388.833V303.868H391.771Z" fill="#747474"/>
<path d="M409.041 311.062L399.268 333.516H396.271L399.898 325.662L393.453 311.062H396.63L401.277 322.274H401.337L405.864 311.062H409.041Z" fill="#747474"/>
<path d="M417.088 326.891C415.829 326.891 414.78 326.501 413.941 325.722C413.101 324.942 412.667 323.856 412.652 322.454V313.73H409.894V311.062H412.652V306.296H415.559V311.062H419.397V313.73H415.559V321.495C415.559 322.536 415.754 323.248 416.159 323.623C416.579 323.983 417.036 324.163 417.538 324.163C417.778 324.163 418.003 324.148 418.227 324.103C418.445 324.043 418.655 323.975 418.857 323.893L419.756 326.501C418.992 326.756 418.108 326.891 417.088 326.891Z" fill="#747474"/>
<path d="M425.804 305.696C425.804 306.258 425.594 306.746 425.175 307.165C424.77 307.57 424.29 307.765 423.736 307.765C423.151 307.765 422.664 307.57 422.267 307.165C421.862 306.746 421.667 306.258 421.667 305.696C421.667 305.119 421.862 304.632 422.267 304.227C422.664 303.83 423.151 303.628 423.736 303.628C424.29 303.628 424.77 303.83 425.175 304.227C425.594 304.632 425.804 305.119 425.804 305.696ZM425.205 311.062V326.651H422.267V311.062H425.205Z" fill="#747474"/>
<path d="M435.073 327.161C432.75 327.161 430.831 326.374 429.317 324.792C427.818 323.196 427.069 321.217 427.069 318.857C427.069 316.458 427.818 314.48 429.317 312.921C430.831 311.347 432.75 310.553 435.073 310.553C436.669 310.553 438.056 310.957 439.24 311.752C440.417 312.554 441.308 313.655 441.908 315.049L439.24 316.159C438.416 314.203 436.969 313.221 434.893 313.221C433.552 313.221 432.39 313.76 431.416 314.84C430.456 315.919 429.977 317.26 429.977 318.857C429.977 320.46 430.456 321.794 431.416 322.874C432.39 323.953 433.552 324.492 434.893 324.492C437.029 324.492 438.528 323.518 439.39 321.555L441.998 322.664C441.436 324.065 440.544 325.167 439.33 325.961C438.108 326.756 436.692 327.161 435.073 327.161Z" fill="#747474"/>
<path d="M456.476 322.334C456.476 323.698 455.876 324.845 454.677 325.782C453.493 326.696 452.009 327.161 450.21 327.161C448.652 327.161 447.273 326.748 446.073 325.931C444.889 325.115 444.042 324.035 443.525 322.694L446.133 321.585C446.531 322.529 447.093 323.256 447.812 323.773C448.547 324.298 449.348 324.552 450.21 324.552C451.147 324.552 451.927 324.358 452.549 323.953C453.186 323.556 453.508 323.076 453.508 322.514C453.508 321.517 452.736 320.79 451.2 320.326L448.532 319.666C445.489 318.887 443.975 317.418 443.975 315.259C443.975 313.843 444.552 312.704 445.714 311.842C446.868 310.987 448.352 310.553 450.15 310.553C451.529 310.553 452.773 310.882 453.898 311.542C455.014 312.202 455.794 313.086 456.236 314.18L453.628 315.259C453.328 314.6 452.833 314.09 452.159 313.73C451.499 313.356 450.757 313.161 449.941 313.161C449.176 313.161 448.487 313.356 447.872 313.73C447.273 314.113 446.973 314.585 446.973 315.139C446.973 316.024 447.812 316.661 449.491 317.058L451.829 317.658C454.924 318.422 456.476 319.981 456.476 322.334Z" fill="#747474"/>
<path d="M306 275.562V323.85C306 329.257 309.726 332.263 313.682 332.263C317.34 332.263 321.364 329.703 321.364 323.85V275.928C321.364 270.978 317.706 267.88 313.682 267.88C309.658 267.88 306 271.298 306 275.562Z" fill="#F8AB00"/>
<path d="M285.88 300.072V323.849C285.88 329.257 289.607 332.263 293.562 332.263C297.22 332.263 301.244 329.702 301.244 323.849V300.437C301.244 295.487 297.586 292.389 293.562 292.389C289.538 292.389 285.88 295.807 285.88 300.072Z" fill="#E37300"/>
<path d="M281.124 324.581C281.124 328.822 277.683 332.263 273.442 332.263C269.201 332.263 265.76 328.822 265.76 324.581C265.76 320.34 269.201 316.899 273.442 316.899C277.683 316.899 281.124 320.34 281.124 324.581Z" fill="#E37300"/>
<rect x="214.421" y="140.421" width="319.158" height="319.158" rx="159.579" stroke="white" stroke-opacity="0.15" stroke-width="0.842105"/>
<defs>
<filter id="filter0_ii_57_1435" x="121.692" y="28.761" width="538.386" height="519.229" filterUnits="userSpaceOnUse" color-interpolation-filters="sRGB">
<feFlood flood-opacity="0" result="BackgroundImageFix"/>
<feBlend mode="normal" in="SourceGraphic" in2="BackgroundImageFix" result="shape"/>
<feColorMatrix in="SourceAlpha" type="matrix" values="0 0 0 0 0 0 0 0 0 0 0 0 0 0 0 0 0 0 127 0" result="hardAlpha"/>
<feOffset dy="-11.457"/>
<feGaussianBlur stdDeviation="16.9365"/>
<feComposite in2="hardAlpha" operator="arithmetic" k2="-1" k3="1"/>
<feColorMatrix type="matrix" values="0 0 0 0 0.352326 0 0 0 0 0.374588 0 0 0 0 0.608333 0 0 0 1 0"/>
<feBlend mode="soft-light" in2="shape" result="effect1_innerShadow_57_1435"/>
<feColorMatrix in="SourceAlpha" type="matrix" values="0 0 0 0 0 0 0 0 0 0 0 0 0 0 0 0 0 0 127 0" result="hardAlpha"/>
<feOffset dy="15.4421"/>
<feGaussianBlur stdDeviation="14.6949"/>
<feComposite in2="hardAlpha" operator="arithmetic" k2="-1" k3="1"/>
<feColorMatrix type="matrix" values="0 0 0 0 0.924513 0 0 0 0 0.870833 0 0 0 0 1 0 0 0 1 0"/>
<feBlend mode="color-dodge" in2="effect1_innerShadow_57_1435" result="effect2_innerShadow_57_1435"/>
</filter>
<linearGradient id="paint0_linear_57_1435" x1="204" y1="164" x2="661" y2="622" gradientUnits="userSpaceOnUse">
<stop stop-color="#FFFDCB"/>
<stop offset="1" stop-color="#FFFDCB" stop-opacity="0"/>
</linearGradient>
<linearGradient id="paint1_linear_57_1435" x1="431.5" y1="516.5" x2="148.353" y2="316.758" gradientUnits="userSpaceOnUse">
<stop stop-color="#6C2CC6"/>
<stop offset="0.54247" stop-color="#EC81B7"/>
<stop offset="1" stop-color="#FBB42B"/>
</linearGradient>
</defs>
</svg>
