<svg width="205" height="48" viewBox="0 0 205 48" fill="none" xmlns="http://www.w3.org/2000/svg">
<path d="M1.99982 14C1.99982 9.58172 5.58154 6 9.99982 6H103.834C106.445 6 108.891 7.27368 110.388 9.41228L118.788 21.4123C120.717 24.1668 120.717 27.8332 118.788 30.5877L110.388 42.5877C108.891 44.7263 106.445 46 103.834 46H9.99981C5.58153 46 1.99982 42.4183 1.99982 38V14Z" fill="#FFD900"/>
<path d="M-0.000183105 12C-0.000183105 7.58172 3.58154 4 7.99982 4H101.834C104.445 4 106.891 5.27368 108.388 7.41228L116.788 19.4123C118.717 22.1668 118.717 25.8332 116.788 28.5877L108.388 40.5877C106.891 42.7263 104.445 44 101.834 44H7.99981C3.58153 44 -0.000183105 40.4183 -0.000183105 36V12Z" fill="#6F3CFF"/>
<path d="M63.5803 32H58.5563V16.48H61.6603L62.5243 18.112C63.1216 17.728 63.7509 17.376 64.4123 17.056C65.0736 16.7147 65.7563 16.448 66.4603 16.256C67.1643 16.064 67.8363 15.968 68.4763 15.968C69.7776 15.968 70.8016 16.2133 71.5483 16.704C72.074 17.0399 72.4947 17.4657 72.8105 17.9815C73.346 17.6479 73.9066 17.3394 74.4923 17.056C75.1749 16.7147 75.8576 16.448 76.5403 16.256C77.2443 16.064 77.9056 15.968 78.5243 15.968C79.8256 15.968 80.8603 16.2133 81.6283 16.704C82.3963 17.1947 82.9403 17.8773 83.2603 18.752C83.6016 19.6267 83.7723 20.6507 83.7723 21.824V32H78.7803V22.496C78.7803 22.0053 78.7269 21.5787 78.6203 21.216C78.5349 20.8533 78.3643 20.576 78.1083 20.384C77.8736 20.1707 77.5216 20.064 77.0523 20.064C76.7323 20.064 76.3696 20.1387 75.9643 20.288C75.5589 20.416 75.1536 20.5867 74.7483 20.8C74.3733 21.0083 74.0187 21.2065 73.6844 21.3944C73.6897 21.5353 73.6923 21.6785 73.6923 21.824V32H68.6683V22.496C68.6683 22.0053 68.6256 21.5787 68.5403 21.216C68.4549 20.8533 68.2843 20.576 68.0283 20.384C67.7936 20.1707 67.4416 20.064 66.9723 20.064C66.6309 20.064 66.2576 20.1387 65.8523 20.288C65.4683 20.416 65.0736 20.5867 64.6683 20.8C64.2843 21.0133 63.9216 21.216 63.5803 21.408V32Z" fill="white"/>
<path fill-rule="evenodd" clip-rule="evenodd" d="M16.8478 38.688L11.8558 39.008V16.512H14.3838L15.2597 17.4789L15.3118 17.44C15.9091 16.992 16.5598 16.64 17.2638 16.384C17.9678 16.128 18.7038 16 19.4718 16C21.0504 16 22.4264 16.3093 23.5998 16.928C24.7731 17.5467 25.6904 18.464 26.3518 19.68C27.0131 20.8747 27.3438 22.3467 27.3438 24.096C27.3438 25.8453 27.0131 27.3387 26.3518 28.576C25.6904 29.792 24.7624 30.7307 23.5678 31.392C22.3731 32.032 20.9331 32.352 19.2478 32.352C18.6291 32.352 17.9784 32.2347 17.2958 32C17.1453 31.9515 16.996 31.8974 16.8478 31.8379V38.688ZM16.8478 27.7421V20.7446C16.9342 20.6852 17.0196 20.629 17.1038 20.576C17.7011 20.2133 18.3091 20.032 18.9278 20.032C19.6318 20.032 20.2184 20.2027 20.6878 20.544C21.1784 20.864 21.5518 21.3333 21.8078 21.952C22.0638 22.5493 22.1918 23.2747 22.1918 24.128C22.1918 24.96 22.0638 25.696 21.8078 26.336C21.5518 26.976 21.1891 27.4773 20.7198 27.84C20.2504 28.1813 19.6958 28.352 19.0558 28.352C18.4158 28.352 17.7758 28.2027 17.1358 27.904C17.0403 27.8546 16.9443 27.8006 16.8478 27.7421Z" fill="white"/>
<path d="M34.1415 32H29.1175V16.512H31.6775L33.0855 18.72C33.5122 18.3787 34.0242 18.0373 34.6215 17.696C35.2189 17.3547 35.8375 17.0667 36.4775 16.832C37.1389 16.5973 37.7469 16.48 38.3015 16.48L39.3255 20.48C38.8349 20.48 38.2802 20.576 37.6615 20.768C37.0642 20.96 36.4562 21.2267 35.8375 21.568C35.2189 21.888 34.6535 22.272 34.1415 22.72V32Z" fill="white"/>
<path fill-rule="evenodd" clip-rule="evenodd" d="M43.769 31.424C45.049 32.0427 46.5317 32.352 48.217 32.352C49.881 32.352 51.353 32.032 52.633 31.392C53.9344 30.752 54.9584 29.824 55.705 28.608C56.4517 27.392 56.825 25.9413 56.825 24.256C56.825 22.4853 56.4624 20.992 55.737 19.776C55.0117 18.5387 54.009 17.6 52.729 16.96C51.449 16.32 49.9664 16 48.281 16C46.6384 16 45.1664 16.3307 43.865 16.992C42.585 17.6533 41.5717 18.592 40.825 19.808C40.0997 21.024 39.7264 22.496 39.705 24.224C39.705 25.952 40.057 27.4347 40.761 28.672C41.4864 29.888 42.489 30.8053 43.769 31.424ZM50.041 27.744C49.5504 28.064 48.953 28.224 48.249 28.224C47.5664 28.224 46.969 28.0533 46.457 27.712C45.9664 27.3707 45.5824 26.9013 45.305 26.304C45.0277 25.6853 44.889 24.992 44.889 24.224C44.889 23.392 45.0277 22.6773 45.305 22.08C45.5824 21.4827 45.977 21.0133 46.489 20.672C47.0224 20.3307 47.6304 20.16 48.313 20.16C48.9957 20.16 49.5824 20.3413 50.073 20.704C50.585 21.0453 50.969 21.5253 51.225 22.144C51.5024 22.7627 51.641 23.4667 51.641 24.256C51.641 25.0453 51.5024 25.7387 51.225 26.336C50.9477 26.9333 50.553 27.4027 50.041 27.744Z" fill="white"/>
<path fill-rule="evenodd" clip-rule="evenodd" d="M89.4265 31.424C90.7065 32.0427 92.1892 32.352 93.8745 32.352C95.5385 32.352 97.0105 32.032 98.2905 31.392C99.5919 30.752 100.616 29.824 101.363 28.608C102.109 27.392 102.483 25.9413 102.483 24.256C102.483 22.4853 102.12 20.992 101.395 19.776C100.669 18.5387 99.6665 17.6 98.3865 16.96C97.1065 16.32 95.6239 16 93.9385 16C92.2959 16 90.8239 16.3307 89.5225 16.992C88.2425 17.6533 87.2292 18.592 86.4825 19.808C85.7572 21.024 85.3839 22.496 85.3625 24.224C85.3625 25.952 85.7145 27.4347 86.4185 28.672C87.1439 29.888 88.1465 30.8053 89.4265 31.424ZM95.6985 27.744C95.2079 28.064 94.6105 28.224 93.9065 28.224C93.2239 28.224 92.6265 28.0533 92.1145 27.712C91.6239 27.3707 91.2399 26.9013 90.9625 26.304C90.6852 25.6853 90.5465 24.992 90.5465 24.224C90.5465 23.392 90.6852 22.6773 90.9625 22.08C91.2399 21.4827 91.6345 21.0133 92.1465 20.672C92.6799 20.3307 93.2879 20.16 93.9705 20.16C94.6532 20.16 95.2399 20.3413 95.7305 20.704C96.2425 21.0453 96.6265 21.5253 96.8825 22.144C97.1599 22.7627 97.2985 23.4667 97.2985 24.256C97.2985 25.0453 97.1599 25.7387 96.8825 26.336C96.6052 26.9333 96.2105 27.4027 95.6985 27.744Z" fill="white"/>
<path d="M177.556 32H182.58V21.408C182.922 21.216 183.284 21.0133 183.668 20.8C184.074 20.5867 184.468 20.416 184.852 20.288C185.258 20.1387 185.631 20.064 185.972 20.064C186.442 20.064 186.794 20.1707 187.028 20.384C187.284 20.576 187.455 20.8533 187.54 21.216C187.626 21.5787 187.668 22.0053 187.668 22.496V32H192.692V21.824C192.692 21.6785 192.69 21.5353 192.685 21.3944C193.019 21.2065 193.373 21.0083 193.748 20.8C194.154 20.5867 194.559 20.416 194.964 20.288C195.37 20.1387 195.732 20.064 196.052 20.064C196.522 20.064 196.874 20.1707 197.108 20.384C197.364 20.576 197.535 20.8533 197.62 21.216C197.727 21.5787 197.78 22.0053 197.78 22.496V32H202.772V21.824C202.772 20.6507 202.602 19.6267 202.26 18.752C201.94 17.8773 201.396 17.1947 200.628 16.704C199.86 16.2133 198.826 15.968 197.524 15.968C196.906 15.968 196.244 16.064 195.54 16.256C194.858 16.448 194.175 16.7147 193.492 17.056C192.907 17.3394 192.346 17.6479 191.811 17.9815C191.495 17.4657 191.074 17.0399 190.548 16.704C189.802 16.2133 188.778 15.968 187.476 15.968C186.836 15.968 186.164 16.064 185.46 16.256C184.756 16.448 184.074 16.7147 183.412 17.056C182.751 17.376 182.122 17.728 181.524 18.112L180.66 16.48H177.556V32Z" fill="#2C2B2D"/>
<path fill-rule="evenodd" clip-rule="evenodd" d="M130.856 39.008L135.848 38.688V31.8379C135.996 31.8974 136.146 31.9515 136.296 32C136.979 32.2347 137.629 32.352 138.248 32.352C139.933 32.352 141.373 32.032 142.568 31.392C143.763 30.7307 144.691 29.792 145.352 28.576C146.013 27.3387 146.344 25.8453 146.344 24.096C146.344 22.3467 146.013 20.8747 145.352 19.68C144.691 18.464 143.773 17.5467 142.6 16.928C141.427 16.3093 140.051 16 138.472 16C137.704 16 136.968 16.128 136.264 16.384C135.56 16.64 134.909 16.992 134.312 17.44L134.26 17.4789L133.384 16.512H130.856V39.008ZM135.848 20.7446V27.7421C135.944 27.8006 136.04 27.8546 136.136 27.904C136.776 28.2027 137.416 28.352 138.056 28.352C138.696 28.352 139.251 28.1813 139.72 27.84C140.189 27.4773 140.552 26.976 140.808 26.336C141.064 25.696 141.192 24.96 141.192 24.128C141.192 23.2747 141.064 22.5493 140.808 21.952C140.552 21.3333 140.179 20.864 139.688 20.544C139.219 20.2027 138.632 20.032 137.928 20.032C137.309 20.032 136.701 20.2133 136.104 20.576C136.02 20.629 135.934 20.6852 135.848 20.7446Z" fill="#2C2B2D"/>
<path d="M148.118 32H153.142V22.72C153.654 22.272 154.219 21.888 154.838 21.568C155.456 21.2267 156.064 20.96 156.662 20.768C157.28 20.576 157.835 20.48 158.326 20.48L157.302 16.48C156.747 16.48 156.139 16.5973 155.478 16.832C154.838 17.0667 154.219 17.3547 153.622 17.696C153.024 18.0373 152.512 18.3787 152.086 18.72L150.678 16.512H148.118V32Z" fill="#2C2B2D"/>
<path fill-rule="evenodd" clip-rule="evenodd" d="M167.217 32.352C165.532 32.352 164.049 32.0427 162.769 31.424C161.489 30.8053 160.487 29.888 159.761 28.672C159.057 27.4347 158.705 25.952 158.705 24.224C158.727 22.496 159.1 21.024 159.825 19.808C160.572 18.592 161.585 17.6533 162.865 16.992C164.167 16.3307 165.639 16 167.281 16C168.967 16 170.449 16.32 171.729 16.96C173.009 17.6 174.012 18.5387 174.737 19.776C175.463 20.992 175.825 22.4853 175.825 24.256C175.825 25.9413 175.452 27.392 174.705 28.608C173.959 29.824 172.935 30.752 171.633 31.392C170.353 32.032 168.881 32.352 167.217 32.352ZM167.249 28.224C167.953 28.224 168.551 28.064 169.041 27.744C169.553 27.4027 169.948 26.9333 170.225 26.336C170.503 25.7387 170.641 25.0453 170.641 24.256C170.641 23.4667 170.503 22.7627 170.225 22.144C169.969 21.5253 169.585 21.0453 169.073 20.704C168.583 20.3413 167.996 20.16 167.313 20.16C166.631 20.16 166.023 20.3307 165.489 20.672C164.977 21.0133 164.583 21.4827 164.305 22.08C164.028 22.6773 163.889 23.392 163.889 24.224C163.889 24.992 164.028 25.6853 164.305 26.304C164.583 26.9013 164.967 27.3707 165.457 27.712C165.969 28.0533 166.567 28.224 167.249 28.224Z" fill="#2C2B2D"/>
</svg>
