<svg width="154" height="36" viewBox="0 0 154 36" fill="none" xmlns="http://www.w3.org/2000/svg">
<path d="M0.124756 9C0.124756 5.68629 2.81105 3 6.12476 3H76.5008C78.4586 3 80.2934 3.95526 81.4161 5.55921L87.7162 14.5592C89.1623 16.6251 89.1623 19.3749 87.7162 21.4408L81.4161 30.4408C80.2934 32.0447 78.4586 33 76.5007 33H6.12475C2.81104 33 0.124756 30.3137 0.124756 27V9Z" fill="#6F3CFF"/>
<path d="M47.81 23.9996H44.042V12.3596H46.37L47.018 13.5836C47.466 13.2956 47.938 13.0316 48.434 12.7916C48.93 12.5356 49.442 12.3356 49.97 12.1916C50.498 12.0476 51.002 11.9756 51.482 11.9756C52.458 11.9756 53.226 12.1596 53.786 12.5276C54.1803 12.7795 54.4958 13.0989 54.7327 13.4857C55.1343 13.2355 55.5547 13.0041 55.994 12.7916C56.506 12.5356 57.018 12.3356 57.53 12.1916C58.058 12.0476 58.554 11.9756 59.018 11.9756C59.994 11.9756 60.77 12.1596 61.346 12.5276C61.922 12.8956 62.33 13.4076 62.57 14.0636C62.826 14.7196 62.954 15.4876 62.954 16.3676V23.9996H59.21V16.8716C59.21 16.5036 59.17 16.1836 59.09 15.9116C59.026 15.6396 58.898 15.4316 58.706 15.2876C58.53 15.1276 58.266 15.0476 57.914 15.0476C57.674 15.0476 57.402 15.1036 57.098 15.2156C56.794 15.3116 56.49 15.4396 56.186 15.5996C55.9048 15.7558 55.6388 15.9044 55.3881 16.0454C55.392 16.1511 55.394 16.2585 55.394 16.3676V23.9996H51.626V16.8716C51.626 16.5036 51.594 16.1836 51.53 15.9116C51.466 15.6396 51.338 15.4316 51.146 15.2876C50.97 15.1276 50.706 15.0476 50.354 15.0476C50.098 15.0476 49.818 15.1036 49.514 15.2156C49.226 15.3116 48.93 15.4396 48.626 15.5996C48.338 15.7596 48.066 15.9116 47.81 16.0556V23.9996Z" fill="white"/>
<path fill-rule="evenodd" clip-rule="evenodd" d="M12.7606 29.0156L9.0166 29.2556V12.3836H10.9126L11.5695 13.1088L11.6086 13.0796C12.0566 12.7436 12.5446 12.4796 13.0726 12.2876C13.6006 12.0956 14.1526 11.9996 14.7286 11.9996C15.9126 11.9996 16.9446 12.2316 17.8246 12.6956C18.7046 13.1596 19.3926 13.8476 19.8886 14.7596C20.3846 15.6556 20.6326 16.7596 20.6326 18.0716C20.6326 19.3836 20.3846 20.5036 19.8886 21.4316C19.3926 22.3436 18.6966 23.0476 17.8006 23.5436C16.9046 24.0236 15.8246 24.2636 14.5606 24.2636C14.0966 24.2636 13.6086 24.1756 13.0966 23.9996C12.9838 23.9632 12.8718 23.9227 12.7606 23.878V29.0156ZM12.7606 20.8062V15.558C12.8255 15.5135 12.8895 15.4713 12.9526 15.4316C13.4006 15.1596 13.8566 15.0236 14.3206 15.0236C14.8486 15.0236 15.2886 15.1516 15.6406 15.4076C16.0086 15.6476 16.2886 15.9996 16.4806 16.4636C16.6726 16.9116 16.7686 17.4556 16.7686 18.0956C16.7686 18.7196 16.6726 19.2716 16.4806 19.7516C16.2886 20.2316 16.0166 20.6076 15.6646 20.8796C15.3126 21.1356 14.8966 21.2636 14.4166 21.2636C13.9366 21.2636 13.4566 21.1516 12.9766 20.9276C12.905 20.8905 12.833 20.8501 12.7606 20.8062Z" fill="white"/>
<path d="M25.7309 23.9996H21.9629V12.3836H23.8829L24.9389 14.0396C25.2589 13.7836 25.6429 13.5276 26.0909 13.2716C26.5389 13.0156 27.0029 12.7996 27.4829 12.6236C27.9789 12.4476 28.4349 12.3596 28.8509 12.3596L29.6189 15.3596C29.2509 15.3596 28.8349 15.4316 28.3709 15.5756C27.9229 15.7196 27.4669 15.9196 27.0029 16.1756C26.5389 16.4156 26.1149 16.7036 25.7309 17.0396V23.9996Z" fill="white"/>
<path fill-rule="evenodd" clip-rule="evenodd" d="M32.9515 23.5676C33.9115 24.0316 35.0235 24.2636 36.2875 24.2636C37.5355 24.2636 38.6395 24.0236 39.5995 23.5436C40.5755 23.0636 41.3435 22.3676 41.9035 21.4556C42.4635 20.5436 42.7435 19.4556 42.7435 18.1916C42.7435 16.8636 42.4715 15.7436 41.9275 14.8316C41.3835 13.9036 40.6315 13.1996 39.6715 12.7196C38.7115 12.2396 37.5995 11.9996 36.3355 11.9996C35.1035 11.9996 33.9995 12.2476 33.0235 12.7436C32.0635 13.2396 31.3035 13.9436 30.7435 14.8556C30.1995 15.7676 29.9195 16.8716 29.9035 18.1676C29.9035 19.4636 30.1675 20.5756 30.6955 21.5036C31.2395 22.4156 31.9915 23.1036 32.9515 23.5676ZM37.6555 20.8076C37.2875 21.0476 36.8395 21.1676 36.3115 21.1676C35.7995 21.1676 35.3515 21.0396 34.9675 20.7836C34.5995 20.5276 34.3115 20.1756 34.1035 19.7276C33.8955 19.2636 33.7915 18.7436 33.7915 18.1676C33.7915 17.5436 33.8955 17.0076 34.1035 16.5596C34.3115 16.1116 34.6075 15.7596 34.9915 15.5036C35.3915 15.2476 35.8475 15.1196 36.3595 15.1196C36.8715 15.1196 37.3115 15.2556 37.6795 15.5276C38.0635 15.7836 38.3515 16.1436 38.5435 16.6076C38.7515 17.0716 38.8555 17.5996 38.8555 18.1916C38.8555 18.7836 38.7515 19.3036 38.5435 19.7516C38.3355 20.1996 38.0395 20.5516 37.6555 20.8076Z" fill="white"/>
<path fill-rule="evenodd" clip-rule="evenodd" d="M67.1947 23.5676C68.1547 24.0316 69.2667 24.2636 70.5307 24.2636C71.7787 24.2636 72.8827 24.0236 73.8427 23.5436C74.8187 23.0636 75.5867 22.3676 76.1467 21.4556C76.7067 20.5436 76.9867 19.4556 76.9867 18.1916C76.9867 16.8636 76.7147 15.7436 76.1707 14.8316C75.6267 13.9036 74.8747 13.1996 73.9147 12.7196C72.9547 12.2396 71.8427 11.9996 70.5787 11.9996C69.3467 11.9996 68.2427 12.2476 67.2667 12.7436C66.3067 13.2396 65.5467 13.9436 64.9867 14.8556C64.4427 15.7676 64.1627 16.8716 64.1467 18.1676C64.1467 19.4636 64.4107 20.5756 64.9387 21.5036C65.4827 22.4156 66.2347 23.1036 67.1947 23.5676ZM71.8987 20.8076C71.5307 21.0476 71.0827 21.1676 70.5547 21.1676C70.0427 21.1676 69.5947 21.0396 69.2107 20.7836C68.8427 20.5276 68.5547 20.1756 68.3467 19.7276C68.1387 19.2636 68.0347 18.7436 68.0347 18.1676C68.0347 17.5436 68.1387 17.0076 68.3467 16.5596C68.5547 16.1116 68.8507 15.7596 69.2347 15.5036C69.6347 15.2476 70.0907 15.1196 70.6027 15.1196C71.1147 15.1196 71.5547 15.2556 71.9227 15.5276C72.3067 15.7836 72.5947 16.1436 72.7867 16.6076C72.9947 17.0716 73.0987 17.5996 73.0987 18.1916C73.0987 18.7836 72.9947 19.3036 72.7867 19.7516C72.5787 20.1996 72.2827 20.5516 71.8987 20.8076Z" fill="white"/>
<path d="M133.292 23.9996H137.06V16.0556C137.316 15.9116 137.588 15.7596 137.876 15.5996C138.18 15.4396 138.476 15.3116 138.764 15.2156C139.068 15.1036 139.348 15.0476 139.604 15.0476C139.956 15.0476 140.22 15.1276 140.396 15.2876C140.588 15.4316 140.716 15.6396 140.78 15.9116C140.844 16.1836 140.876 16.5036 140.876 16.8716V23.9996H144.644V16.3676C144.644 16.2585 144.643 16.1511 144.639 16.0454C144.889 15.9044 145.155 15.7558 145.436 15.5996C145.74 15.4396 146.044 15.3116 146.348 15.2156C146.652 15.1036 146.924 15.0476 147.164 15.0476C147.516 15.0476 147.78 15.1276 147.956 15.2876C148.148 15.4316 148.276 15.6396 148.34 15.9116C148.42 16.1836 148.46 16.5036 148.46 16.8716V23.9996H152.204V16.3676C152.204 15.4876 152.076 14.7196 151.82 14.0636C151.58 13.4076 151.172 12.8956 150.596 12.5276C150.02 12.1596 149.244 11.9756 148.268 11.9756C147.804 11.9756 147.308 12.0476 146.78 12.1916C146.268 12.3356 145.756 12.5356 145.244 12.7916C144.805 13.0041 144.385 13.2355 143.983 13.4857C143.746 13.0989 143.431 12.7795 143.036 12.5276C142.476 12.1596 141.708 11.9756 140.732 11.9756C140.252 11.9756 139.748 12.0476 139.22 12.1916C138.692 12.3356 138.18 12.5356 137.684 12.7916C137.188 13.0316 136.716 13.2956 136.268 13.5836L135.62 12.3596H133.292V23.9996Z" fill="#2C2B2D"/>
<path fill-rule="evenodd" clip-rule="evenodd" d="M98.2671 29.2556L102.011 29.0156V23.878C102.122 23.9227 102.234 23.9632 102.347 23.9996C102.859 24.1756 103.347 24.2636 103.811 24.2636C105.075 24.2636 106.155 24.0236 107.051 23.5436C107.947 23.0476 108.643 22.3436 109.139 21.4316C109.635 20.5036 109.883 19.3836 109.883 18.0716C109.883 16.7596 109.635 15.6556 109.139 14.7596C108.643 13.8476 107.955 13.1596 107.075 12.6956C106.195 12.2316 105.163 11.9996 103.979 11.9996C103.403 11.9996 102.851 12.0956 102.323 12.2876C101.795 12.4796 101.307 12.7436 100.859 13.0796L100.82 13.1088L100.163 12.3836H98.2671V29.2556ZM102.011 15.558V20.8062C102.083 20.8501 102.155 20.8905 102.227 20.9276C102.707 21.1516 103.187 21.2636 103.667 21.2636C104.147 21.2636 104.563 21.1356 104.915 20.8796C105.267 20.6076 105.539 20.2316 105.731 19.7516C105.923 19.2716 106.019 18.7196 106.019 18.0956C106.019 17.4556 105.923 16.9116 105.731 16.4636C105.539 15.9996 105.259 15.6476 104.891 15.4076C104.539 15.1516 104.099 15.0236 103.571 15.0236C103.107 15.0236 102.651 15.1596 102.203 15.4316C102.14 15.4713 102.076 15.5135 102.011 15.558Z" fill="#2C2B2D"/>
<path d="M111.213 23.9996H114.981V17.0396C115.365 16.7036 115.789 16.4156 116.253 16.1756C116.717 15.9196 117.173 15.7196 117.621 15.5756C118.085 15.4316 118.501 15.3596 118.869 15.3596L118.101 12.3596C117.685 12.3596 117.229 12.4476 116.733 12.6236C116.253 12.7996 115.789 13.0156 115.341 13.2716C114.893 13.5276 114.509 13.7836 114.189 14.0396L113.133 12.3836H111.213V23.9996Z" fill="#2C2B2D"/>
<path fill-rule="evenodd" clip-rule="evenodd" d="M125.538 24.2636C124.274 24.2636 123.162 24.0316 122.202 23.5676C121.242 23.1036 120.49 22.4156 119.946 21.5036C119.418 20.5756 119.154 19.4636 119.154 18.1676C119.17 16.8716 119.45 15.7676 119.994 14.8556C120.554 13.9436 121.314 13.2396 122.274 12.7436C123.25 12.2476 124.354 11.9996 125.586 11.9996C126.85 11.9996 127.962 12.2396 128.922 12.7196C129.882 13.1996 130.634 13.9036 131.178 14.8316C131.722 15.7436 131.994 16.8636 131.994 18.1916C131.994 19.4556 131.714 20.5436 131.154 21.4556C130.594 22.3676 129.826 23.0636 128.85 23.5436C127.89 24.0236 126.786 24.2636 125.538 24.2636ZM125.562 21.1676C126.09 21.1676 126.538 21.0476 126.906 20.8076C127.29 20.5516 127.586 20.1996 127.794 19.7516C128.002 19.3036 128.106 18.7836 128.106 18.1916C128.106 17.5996 128.002 17.0716 127.794 16.6076C127.602 16.1436 127.314 15.7836 126.93 15.5276C126.562 15.2556 126.122 15.1196 125.61 15.1196C125.098 15.1196 124.642 15.2476 124.242 15.5036C123.858 15.7596 123.562 16.1116 123.354 16.5596C123.146 17.0076 123.042 17.5436 123.042 18.1676C123.042 18.7436 123.146 19.2636 123.354 19.7276C123.562 20.1756 123.85 20.5276 124.218 20.7836C124.602 21.0396 125.05 21.1676 125.562 21.1676Z" fill="#2C2B2D"/>
</svg>
