<svg width="204" height="72" viewBox="0 0 204 72" fill="none" xmlns="http://www.w3.org/2000/svg">
<g clip-path="url(#clip0_155_2176)">
<path d="M189.81 21.3682C135.965 63.5983 75.7375 85.6281 10.0951 24.5581C6.47293 20.1493 2.86142 25.1245 8.69684 30.9127C78.669 100.318 162.631 49.1243 189.773 24.474C189.959 24.3053 190.226 24.5093 190.158 24.751C187.731 33.4693 186.338 34.954 187.823 40.1508C188.094 41.0981 189.389 41.031 189.604 40.0697C191.172 33.071 192.088 27.1102 194.142 19.3386C194.296 18.7568 193.911 18.1862 193.31 18.1918C189.57 18.2265 180.247 19.4923 170.933 18.8543C169.756 18.7737 169.416 20.0776 170.567 20.335C179.311 22.2901 189.031 21.9372 189.81 21.3682Z" fill="#FFD900"/>
</g>
<defs>
<clipPath id="clip0_155_2176">
<rect width="204" height="72" fill="white"/>
</clipPath>
</defs>
</svg>
