<svg width="204" height="72" viewBox="0 0 204 72" fill="none" xmlns="http://www.w3.org/2000/svg">
<path d="M197.907 28.1179C129.111 0.425911 44.8504 -3.81901 7.32695 65.5759C7.26914 65.6828 7.19122 65.7816 7.09789 65.8594C3.98608 68.4554 -0.35672 69.0036 1.40811 65.7403C52.6879 -29.0791 161.781 7.24228 195.918 23.9718C196.14 24.0806 196.331 23.8159 196.204 23.6037C191.007 14.9139 186.728 14.5915 187.363 8.16119C187.448 7.30232 188.529 7.05943 189.047 7.75008C193.777 14.0634 199.613 21.3164 202.647 29.0771C202.849 29.593 202.577 30.1593 202.033 30.2603C198.186 30.9734 188.764 30.75 178.962 35.8681C178.009 36.3663 177.008 35.314 177.716 34.5038C186.034 24.9869 196.754 27.6571 197.907 28.1179Z" fill="#FFD900"/>
</svg>
